<svg xmlns="http://www.w3.org/2000/svg" width="515" height="237" viewBox="0 0 515 237">
  <g id="グループ_1619" data-name="グループ 1619" transform="translate(-275.5 -1437.75)">
    <g id="長方形_1312" data-name="長方形 1312" transform="translate(275.5 1437.75)" fill="#fff" stroke="#707070" stroke-width="1">
      <rect width="515" height="237" stroke="none"/>
      <rect x="0.5" y="0.5" width="514" height="236" fill="none"/>
    </g>
    <g id="グループ_1608" data-name="グループ 1608" transform="translate(227.728 1285.915)">
      <g id="グループ_1611" data-name="グループ 1611">
        <g id="グループ_1610" data-name="グループ 1610">
          <g id="グループ_1608-2" data-name="グループ 1608">
            <path id="パス_1712" data-name="パス 1712" d="M156.239,227.45l.165-1.979H166.7l-.164,1.979Zm.66-7.128.165-1.977h10.294l-.164,1.977Zm10.36,17.289,10-17.815h3.333l-.133,1.32h1.122l.3-3.3h1.452l-.3,3.3h1.056l.3-3.3h1.452l-.3,3.3h-.594l-9.238,16.495Z" fill="#1a1311"/>
            <path id="パス_1713" data-name="パス 1713" d="M187.772,225.537l.165-1.98h4.223L192,221.116h7.125l.166,2.441h16.232l-2.375,8.182h-6.829l1.781-6.2h-8.71l.759,12.074h-7.127l-.759-12.074Z" fill="#1a1311"/>
            <path id="パス_1714" data-name="パス 1714" d="M215.519,237.611l5.675-19.795h6.864l-5.675,19.795Zm21.644,0-2.771-19.795h6.863l2.771,19.795Zm8.909-16.495h-3.959l.3-3.3h3.96Zm-1.254-2.311h-1.056l-.1,1.32h1.056Z" fill="#1a1311"/>
            <path id="パス_1715" data-name="パス 1715" d="M249.8,220.653l.166-1.979h10.293l-.164,1.979Zm8.38,16.958,12.109-18.146h8.446l-12.108,18.146Z" fill="#1a1311"/>
            <path id="パス_1716" data-name="パス 1716" d="M282.172,220.72l.165-1.98h25.471l-.166,1.98h-9.105l-1.32,14.912h10.459l-.165,1.979H279.169l.166-1.979h10.524l1.288-14.912Z" fill="#1a1311"/>
            <path id="パス_1717" data-name="パス 1717" d="M311.241,222.171l.166-1.98h11.976l.792-2.375h7.918l-.791,2.375h9.534l-.164,1.98h-10l-5.08,15.44h-7.886l5.049-15.44Z" fill="#1a1311"/>
            <path id="パス_1718" data-name="パス 1718" d="M343.611,227.45l.165-1.979H354.07l-.165,1.979Zm.66-7.128.165-1.977H354.73l-.165,1.977Zm10.36,17.289,10-17.815h3.333l-.132,1.32h1.122l.3-3.3H370.7l-.3,3.3h1.056l.3-3.3h1.452l-.3,3.3h-.6l-9.237,16.495Z" fill="#1a1311"/>
            <path id="パス_1719" data-name="パス 1719" d="M372.745,230.221l.165-1.98h28.374l-.165,1.98Z" fill="#1a1311"/>
            <path id="パス_1720" data-name="パス 1720" d="M407.358,237.611l.429-4.916h-3.069l3.959-9.864.033-.561h-3.035l.164-1.98h3.037l.23-2.506h5.543l-.231,2.506h2.508l-.166,1.98h-2.507l-.4,4.422,2.409,1.154-.2,2.244-2.408-1.154-.759,8.675Zm14.715,0,.528-6.169-6.467,5.509.3-3.561,6.5-5.544v-.131h-6.2l.164-1.98h6.2l.33-3.564h-2.012l-.594,2.111h-3.96l1.815-6.466h3.96l-.66,2.375h1.616l.2-2.375h5.675l-.2,2.375h5.246l-.165,1.98H429.1l-.33,3.564h6.2l-.164,1.98h-6.2v.1l5.774,5.576-.33,3.561-5.774-5.576-.527,6.236Z" fill="#1a1311"/>
            <path id="パス_1721" data-name="パス 1721" d="M438.605,227.02l.165-1.979h16.4L455,227.02h-4.916l-.561,6.632,5.048-.164-.231,2.242-16.661.529.231-2.244,5.246-.163.593-6.832Zm-.66-5.146.165-1.979H455.4l-.494-2.079h6.6L462,219.9h2.31l.164-2.079h2.9l-.166,2.079h.495l-.165,1.979h-5.081l3.729,15.737h-6.6l-3.729-15.737Z" fill="#1a1311"/>
            <path id="パス_1722" data-name="パス 1722" d="M471.04,223.36l.265-3.038,14.978-2.506,14.582,2.506-.264,3.038-14.583-2.509Zm.626,6.07.165-1.98h27.517l-.166,1.98h-15.9l-2.178,5.146,8.678-.494-1.253-3.6h6.8l2.474,7.126H491l-.363-1.087-18.772,1.087.262-2.506,2.014-.1,2.341-5.576Zm2.773-3.959.165-1.98h22.27l-.166,1.98Z" fill="#1a1311"/>
            <path id="パス_1723" data-name="パス 1723" d="M507.7,237.611l.43-4.916h-4.785l7.623-10.425H504.3l.165-1.98h4.785l.2-2.474h5.806l-.2,2.474h3.167l-3.629,4.948-.2,2.178,2.969.825-.163,1.98-2.971-.825-.725,8.215Zm10.262-14.286.164-1.979h4.256l.3-3.53h6.334l-.3,3.53H533.5l-.165,1.979H528.55l-1.09,12.307h5.247l-.165,1.979H516.111l.165-1.979h4.85l1.089-12.307Z" fill="#1a1311"/>
          </g>
          <g id="グループ_1609" data-name="グループ 1609">
            <path id="パス_1724" data-name="パス 1724" d="M135.552,218.947l-11.511,0-4.626,11.513,11.511,0,2.57-6.4Z"/>
            <path id="パス_1725" data-name="パス 1725" d="M114.788,241.969l4.626-11.513h0l4.626-11.513h0l4.626-11.513h0l4.626-11.513L98.758,195.9l-4.626,11.513,23.023.008-13.878,34.539-11.511,0,9.252-23.026-11.511,0L75.628,253.47l34.534.012,4.626-11.513Z" fill="#002076"/>
            <path id="パス_1726" data-name="パス 1726" d="M140.178,207.434l-4.626,11.513,11.511,0,9.252-23.026-23.023-.008-4.626,11.513Z"/>
            <path id="パス_1727" data-name="パス 1727" d="M114.788,241.969l-4.626,11.513,23.023.008,9.252-23.026-11.511,0L126.3,241.973Z"/>
          </g>
        </g>
      </g>
      <g id="グループ_1618" data-name="グループ 1618">
        <g id="グループ_1617" data-name="グループ 1617">
          <g id="グループ_1615" data-name="グループ 1615">
            <g id="グループ_1612" data-name="グループ 1612">
              <path id="パス_1728" data-name="パス 1728" d="M173.937,328.082l7.432-18.581h-5.843l-5.012,12.518h-8.239l1.883-4.694h-5.843l-4.328,10.757Z" fill="#1a1311"/>
              <path id="パス_1729" data-name="パス 1729" d="M182.8,328.082l1.247-3.128h8.215l-1.246,3.128h5.867l7.432-18.581H184.393l-7.456,18.581Zm3.643-9.192,1.37-3.325h8.238l-1.368,3.325Z" fill="#1a1311"/>
              <path id="パス_1730" data-name="パス 1730" d="M205.752,328.082l2.495-6.258h8.8l4.106-2.934,2.91-7.237-1.3-2.152H207.342l-7.456,18.581Zm4.377-10.757,1.2-3.326H217.2l-1.223,3.326Z" fill="#1a1311"/>
              <path id="パス_1731" data-name="パス 1731" d="M226.505,328.082l1.247-3.128h8.215l-1.246,3.128h5.867L248.02,309.5H228.1l-7.456,18.581Zm3.643-9.192,1.37-3.325h8.238l-1.368,3.325Z" fill="#1a1311"/>
              <path id="パス_1732" data-name="パス 1732" d="M249.454,328.082l3.522-8.826,5.28,8.826h5.281l7.432-18.581h-5.843l-3.545,8.826L256.3,309.5h-5.256l-7.456,18.581Z" fill="#1a1311"/>
            </g>
            <g id="グループ_1613" data-name="グループ 1613">
              <path id="パス_1733" data-name="パス 1733" d="M288.553,328.082l1.784-4.5H278.723l1.37-3.325h7.824l1.173-2.934h-7.75l1.2-3.326h11.638l1.809-4.5H278.553L271.1,328.082Z" fill="#1a1311"/>
              <path id="パス_1734" data-name="パス 1734" d="M297.419,328.082l3.522-8.826,5.281,8.826h5.28l7.432-18.581h-5.842l-3.546,8.826-5.28-8.826h-5.257l-7.456,18.581Z" fill="#1a1311"/>
              <path id="パス_1735" data-name="パス 1735" d="M331.958,328.082l1.784-4.5H322.129l1.369-3.325h7.825l1.172-2.934h-7.749l1.2-3.326h11.637l1.809-4.5H321.958L314.5,328.082Z" fill="#1a1311"/>
              <path id="パス_1736" data-name="パス 1736" d="M340.825,328.082l1.882-4.694h5.7l1.516,2.542-.879,2.152h5.866l2.176-5.476-1.125-1.858,2.618-1.858,2.908-7.237-1.3-2.152H342.414l-7.456,18.581Zm4.377-10.757L346.4,314h8.214l-1.222,3.326Z" fill="#1a1311"/>
              <path id="パス_1737" data-name="パス 1737" d="M377.88,328.082l4.3-10.757H371.646l-1.173,2.934h4.694l-1.369,3.325h-8.215L369.422,314H383.5l1.808-4.5H365.387l-7.456,18.581Z" fill="#1a1311"/>
              <path id="パス_1738" data-name="パス 1738" d="M394.6,328.082l2.42-6.063,10.952-7.824,1.859-4.694h-5.842L402.2,314l-6.332,4.5-3.153-5.281,1.467-3.716h-5.845l-2.175,5.476,4.694,7.825-2.1,5.28Z" fill="#1a1311"/>
            </g>
            <g id="グループ_1614" data-name="グループ 1614">
              <path id="パス_1739" data-name="パス 1739" d="M427.362,328.082l2.421-6.063h-10l2.592-6.454h10l2.42-6.064H417.387l-7.456,18.581Z" fill="#1a1311"/>
              <path id="パス_1740" data-name="パス 1740" d="M450.311,328.082l7.432-18.581H437.818l-7.456,18.581Zm-11.662-6.063,2.592-6.454h8.214l-2.567,6.454Z" fill="#1a1311"/>
              <path id="パス_1741" data-name="パス 1741" d="M459.2,328.082l1.786-4.5h-5.844l-1.808,4.5Z" fill="#1a1311"/>
              <path id="パス_1742" data-name="パス 1742" d="M462.324,331.212l6.284-4.5,1.247-3.13h-5.844l-3.055,7.628Z" fill="#1a1311"/>
              <path id="パス_1743" data-name="パス 1743" d="M486.52,328.082l2.421-6.063h-9.535l5.011-12.518h-5.843l-7.456,18.581Z" fill="#1a1311"/>
              <path id="パス_1744" data-name="パス 1744" d="M499.132,328.082l5.011-12.517h6.26l2.419-6.064H492.9l-2.445,6.064h6.258L491.7,328.082Z" fill="#1a1311"/>
              <path id="パス_1745" data-name="パス 1745" d="M525.405,328.082l4.108-2.934,5.4-13.495-1.3-2.152H515.846l-7.456,18.581Zm-8.727-6.063,2.591-6.454h8.215l-2.568,6.454Z" fill="#1a1311"/>
            </g>
          </g>
          <g id="グループ_1616" data-name="グループ 1616">
            <path id="パス_1746" data-name="パス 1746" d="M135.552,310.223l-11.511,0-4.626,11.513,11.511,0,2.57-6.4Z"/>
            <path id="パス_1747" data-name="パス 1747" d="M114.788,333.245l4.626-11.513h0l4.626-11.513h0l4.626-11.513h0l4.626-11.513-34.534-.012-4.626,11.513,23.023.008-13.878,34.539-11.511,0,9.252-23.026-11.511,0L75.628,344.746l34.534.012,4.626-11.513Z" fill="#002076"/>
            <path id="パス_1748" data-name="パス 1748" d="M140.178,298.71l-4.626,11.513,11.511,0,9.252-23.026-23.023-.008-4.626,11.513Z"/>
            <path id="パス_1749" data-name="パス 1749" d="M114.788,333.245l-4.626,11.513,23.023.008,9.252-23.026-11.511,0L126.3,333.249Z"/>
          </g>
        </g>
      </g>
    </g>
  </g>
</svg>
