<svg xmlns="http://www.w3.org/2000/svg" xmlns:xlink="http://www.w3.org/1999/xlink" width="438.336" height="405.353" viewBox="0 0 438.336 405.353">
  <defs>
    <linearGradient id="linear-gradient" x1="0.5" x2="0.5" y2="1" gradientUnits="objectBoundingBox">
      <stop offset="0" stop-color="#181d65"/>
      <stop offset="1" stop-color="#1956a6"/>
    </linearGradient>
  </defs>
  <g id="グループ_1951" data-name="グループ 1951" transform="translate(-740.832 -2035)">
    <g id="パス_525" data-name="パス 525" transform="translate(740.832 2035)" fill="url(#linear-gradient)">
      <path d="M 437.8363342285156 404.8526306152344 L 0.5000157356262207 404.8526306152344 L 0.5000157356262207 8.679911613464355 C 0.5000157356262207 4.169522285461426 4.169515609741211 0.500022292137146 8.679960250854492 0.500022292137146 L 429.6564025878906 0.500022292137146 C 434.1668395996094 0.500022292137146 437.8363342285156 4.169522285461426 437.8363342285156 8.679911613464355 L 437.8363342285156 404.8526306152344 Z" stroke="none"/>
      <path d="M 8.679901123046875 0.999969482421875 C 4.4451904296875 0.999969482421875 1.000030517578125 4.4451904296875 1.000030517578125 8.679901123046875 L 1.000030517578125 404.3525695800781 L 437.3363342285156 404.3525695800781 L 437.3363342285156 8.679901123046875 C 437.3363342285156 4.4451904296875 433.89111328125 0.999969482421875 429.6564025878906 0.999969482421875 L 8.679901123046875 0.999969482421875 M 8.679901123046875 -3.0517578125e-05 L 429.6564025878906 -3.0517578125e-05 C 434.4502258300781 -3.0517578125e-05 438.3363342285156 3.886138916015625 438.3363342285156 8.679901123046875 L 438.3363342285156 405.3525695800781 L 3.0517578125e-05 405.3525695800781 L 3.0517578125e-05 8.679901123046875 C 3.0517578125e-05 3.886138916015625 3.886138916015625 -3.0517578125e-05 8.679901123046875 -3.0517578125e-05 Z" stroke="none" fill="#d9d9d9"/>
    </g>
    <text id="Coming_Soon..." data-name="Coming Soon..." transform="translate(842 2246)" fill="#fff" font-size="24" font-family="Helvetica-Bold, Helvetica" font-weight="700" letter-spacing="0.2em"><tspan x="0" y="0">Coming Soon...</tspan></text>
  </g>
</svg>
