<?xml version="1.0" standalone="no"?>
<!DOCTYPE svg PUBLIC "-//W3C//DTD SVG 20010904//EN"
 "http://www.w3.org/TR/2001/REC-SVG-20010904/DTD/svg10.dtd">
<svg version="1.0" xmlns="http://www.w3.org/2000/svg"
 width="1312.000000pt" height="1312.000000pt" viewBox="0 0 1312.000000 1312.000000"
 preserveAspectRatio="xMidYMid meet">
<metadata>
Created by potrace 1.14, written by Peter Selinger 2001-2017
</metadata>
<g transform="translate(0.000000,1312.000000) scale(0.100000,-0.100000)"
fill="#000000" stroke="none">
<path d="M8464 11334 c-18 -14 -18 -15 4 -4 12 6 22 13 22 15 0 8 -5 6 -26
-11z"/>
<path d="M8389 11293 c-13 -16 -12 -17 4 -4 16 13 21 21 13 21 -2 0 -10 -8
-17 -17z"/>
<path d="M8340 11269 c-22 -18 -22 -19 -3 -10 12 6 25 16 28 21 9 15 3 12 -25
-11z"/>
<path d="M8043 11122 c-139 -70 -253 -125 -253 -122 0 3 -4 1 -8 -5 -4 -5 -68
-41 -142 -78 -74 -38 -171 -87 -215 -110 -44 -22 -86 -42 -94 -43 -8 -2 -17
-6 -20 -11 -8 -11 -214 -114 -225 -113 -5 1 -12 -3 -15 -8 -3 -5 -96 -55 -206
-112 -110 -56 -247 -127 -305 -157 -371 -193 -412 -212 -485 -218 -38 -4 -81
-8 -95 -10 -14 -2 -47 -6 -75 -9 -27 -3 -63 -9 -80 -12 -16 -4 -37 -8 -45 -9
-8 -1 -31 -5 -50 -9 -19 -4 -42 -8 -50 -10 -136 -26 -496 -134 -605 -182 -22
-10 -46 -19 -53 -20 -33 -6 -347 -162 -464 -230 -139 -81 -384 -245 -408 -273
-3 -4 -21 -18 -40 -32 -19 -15 -46 -37 -60 -49 -14 -12 -52 -44 -85 -73 -71
-60 -302 -293 -360 -362 -22 -26 -51 -59 -64 -74 -13 -14 -30 -36 -39 -49 -13
-20 -88 -65 -261 -157 -31 -16 -58 -33 -59 -37 -2 -5 -7 -8 -12 -8 -7 0 -91
-46 -350 -193 -19 -10 -73 -42 -120 -70 -47 -27 -105 -61 -130 -75 -117 -65
-201 -115 -198 -117 2 -2 50 21 108 50 107 55 114 59 162 79 16 6 28 14 28 18
0 5 3 7 8 6 4 -1 61 25 127 57 66 33 123 59 128 57 4 -1 7 2 7 7 0 5 16 15 35
22 19 7 35 17 35 21 0 4 7 8 15 8 8 0 29 8 47 18 60 34 255 132 262 132 4 0
12 5 19 10 11 10 217 116 507 262 69 35 127 65 130 68 4 4 134 72 380 198 47
24 114 59 150 79 60 32 226 119 375 196 33 17 62 35 63 39 2 4 11 8 21 8 9 0
21 4 26 9 6 5 46 28 90 51 44 23 136 72 205 108 69 37 148 79 175 93 28 15 70
38 95 51 191 101 290 155 321 174 20 13 40 20 43 17 3 -4 6 -1 6 5 0 7 4 12 9
12 5 0 66 32 137 71 71 39 134 71 141 72 7 0 15 7 17 14 3 8 10 12 15 9 5 -3
14 1 21 9 7 8 16 15 20 15 4 0 69 34 144 75 75 41 141 75 146 75 6 0 10 5 10
10 0 6 5 10 10 10 6 0 45 20 88 43 42 24 113 63 157 87 44 24 114 62 155 85
259 145 332 185 340 185 5 0 10 3 12 8 2 4 26 19 53 33 65 34 279 154 308 174
13 8 27 12 30 8 4 -3 7 -1 7 5 0 6 19 20 43 31 23 11 59 31 80 45 21 14 39 26
41 26 2 0 90 50 196 110 107 61 190 110 184 109 -5 0 -123 -58 -261 -127z"/>
<path d="M7760 10625 c-7 -8 -16 -12 -21 -9 -5 3 -9 0 -9 -5 0 -16 9 -14 37 9
14 11 21 20 16 20 -6 0 -16 -7 -23 -15z"/>
<path d="M7553 10524 c-90 -46 -163 -81 -163 -78 0 3 -6 0 -12 -6 -7 -6 -107
-58 -223 -116 -115 -58 -253 -127 -305 -154 -52 -26 -99 -48 -104 -48 -5 0
-12 -4 -15 -9 -3 -4 -64 -37 -136 -73 -71 -36 -132 -67 -135 -70 -3 -3 -68
-36 -145 -75 -77 -38 -148 -76 -157 -84 -10 -8 -18 -11 -18 -6 0 4 -6 2 -14
-4 -7 -6 -62 -36 -122 -67 -60 -31 -145 -75 -189 -99 -44 -23 -123 -64 -175
-91 -52 -27 -98 -53 -102 -59 -4 -5 -8 -7 -8 -3 0 4 -22 -6 -50 -22 -28 -16
-50 -26 -50 -22 0 4 -4 2 -8 -3 -4 -6 -36 -26 -72 -44 -36 -19 -87 -46 -115
-61 -27 -15 -104 -56 -170 -90 -66 -35 -124 -66 -130 -70 -5 -4 -64 -36 -130
-70 -66 -35 -123 -68 -127 -74 -4 -6 -8 -7 -8 -2 0 4 -10 2 -22 -6 -13 -8 -63
-37 -113 -63 -75 -40 -277 -149 -350 -189 -11 -6 -23 -15 -27 -21 -4 -5 -8 -6
-8 -1 0 4 -11 1 -25 -8 -13 -9 -46 -28 -72 -42 -26 -14 -96 -53 -154 -85 -58
-32 -111 -59 -117 -59 -5 0 -12 -4 -14 -9 -1 -4 -43 -29 -93 -55 -49 -26 -94
-51 -100 -55 -10 -8 -140 -79 -225 -123 -25 -13 -47 -26 -50 -29 -5 -6 -129
-74 -195 -107 -16 -9 -33 -20 -36 -25 -3 -5 -10 -9 -15 -9 -9 -1 -86 -44 -142
-80 -15 -9 -46 -27 -69 -39 -24 -13 -43 -27 -43 -32 0 -6 -3 -8 -6 -5 -3 3
-31 -9 -62 -28 -142 -84 -97 -65 165 67 l212 108 -39 -77 c-45 -90 -83 -173
-86 -187 -1 -5 -20 -53 -42 -105 -32 -78 -86 -230 -96 -275 -1 -5 -12 -41 -23
-80 -20 -67 -60 -233 -69 -285 -3 -14 -9 -47 -14 -75 -12 -63 -20 -119 -26
-170 -2 -22 -6 -56 -9 -75 -2 -19 -7 -75 -10 -125 -4 -49 -8 -104 -10 -122
l-3 -32 67 36 c36 20 242 125 456 233 504 254 952 482 1240 631 127 65 236
118 243 119 6 0 12 -6 12 -13 0 -7 16 -26 35 -42 25 -19 33 -31 26 -38 -8 -8
-6 -16 6 -29 9 -10 14 -20 12 -22 -2 -1 -44 -25 -94 -51 -49 -26 -112 -60
-140 -75 -27 -15 -81 -45 -120 -65 -38 -21 -76 -42 -82 -47 -7 -6 -13 -7 -13
-3 0 5 -8 1 -18 -8 -10 -9 -33 -24 -52 -32 -19 -9 -62 -32 -95 -51 -33 -19
-78 -43 -100 -54 -22 -11 -62 -33 -90 -48 -27 -16 -72 -40 -98 -55 -26 -15
-95 -53 -154 -85 -58 -31 -121 -66 -142 -77 -20 -12 -65 -36 -101 -55 -36 -19
-67 -37 -70 -40 -3 -3 -18 -12 -35 -20 -16 -8 -32 -17 -35 -20 -3 -3 -23 -14
-45 -25 -22 -11 -58 -30 -80 -44 -22 -13 -46 -24 -52 -24 -7 0 -13 -3 -13 -7
0 -9 -60 -42 -60 -33 0 4 -4 3 -8 -3 -4 -6 -34 -25 -67 -43 -78 -42 -327 -182
-385 -215 -25 -15 -65 -36 -90 -49 -25 -12 -49 -26 -55 -30 -5 -4 -98 -57
-205 -117 -107 -61 -206 -117 -220 -125 -14 -8 -55 -32 -93 -52 -37 -21 -67
-40 -67 -44 0 -4 174 80 387 187 213 107 390 194 394 194 3 0 5 -23 5 -50 -1
-28 1 -50 4 -50 4 0 4 -16 2 -35 -3 -22 0 -35 7 -35 8 0 9 -5 2 -19 -6 -10 -8
-20 -6 -22 4 -5 9 -33 20 -114 9 -71 14 -97 36 -210 25 -127 23 -116 54 -232
15 -54 28 -105 30 -113 2 -8 4 -16 5 -17 2 -2 3 -6 4 -10 1 -5 5 -14 9 -20 5
-7 6 -13 2 -13 -3 0 1 -12 8 -27 7 -16 12 -35 10 -43 -4 -16 -10 -20 -86 -56
-24 -12 -48 -27 -51 -33 -4 -6 -12 -9 -17 -6 -5 4 -9 1 -9 -4 0 -6 -5 -11 -11
-11 -5 0 -53 -25 -105 -55 -53 -30 -97 -55 -99 -55 -4 0 -146 -79 -220 -122
-11 -7 -69 -40 -130 -73 -60 -34 -131 -74 -158 -88 -26 -15 -66 -38 -90 -51
-209 -116 -306 -171 -327 -184 -14 -9 -27 -17 -30 -17 -3 0 -16 -8 -30 -16
-14 -9 -52 -31 -85 -49 -33 -18 -75 -41 -92 -52 -108 -61 -225 -128 -271 -155
-20 -12 -57 -32 -82 -45 -25 -13 -49 -27 -55 -31 -5 -5 -62 -37 -125 -73 -63
-35 -119 -69 -125 -76 -5 -6 1 -5 15 4 39 24 149 78 156 77 4 0 10 3 13 8 3 4
209 109 456 233 248 124 452 228 453 232 2 5 8 8 14 8 14 0 221 103 229 113 3
5 9 8 13 8 3 -1 45 19 94 43 48 24 175 88 282 142 107 54 197 102 198 106 2 5
11 8 21 8 9 0 21 4 26 9 9 8 231 122 625 322 80 40 148 77 151 82 3 5 9 8 13
8 7 -1 84 37 221 109 50 26 155 81 235 121 80 41 147 77 148 82 2 4 11 7 21 7
9 0 21 4 26 9 10 9 121 68 385 203 85 44 159 84 164 89 17 15 36 10 36 -10 0
-11 -82 -98 -200 -215 -111 -108 -202 -196 -204 -196 -2 0 -23 -19 -47 -41
-24 -23 -70 -65 -103 -93 -32 -28 -71 -62 -86 -76 -15 -14 -47 -41 -70 -60
-23 -19 -52 -43 -64 -54 -11 -10 -41 -35 -66 -55 -25 -20 -46 -39 -48 -43 -2
-5 -8 -8 -14 -8 -6 0 -20 -10 -32 -22 -23 -25 -85 -73 -126 -100 -14 -9 -35
-25 -47 -37 -12 -11 -39 -33 -61 -48 -129 -91 -152 -109 -152 -117 0 -5 8 -2
18 7 10 10 21 17 24 17 4 0 37 17 75 39 37 21 95 53 128 71 33 18 78 43 100
55 233 128 286 150 213 91 -18 -15 -50 -42 -71 -59 -21 -18 -47 -39 -57 -47
-50 -42 -188 -149 -220 -170 -12 -8 -28 -19 -34 -25 -23 -21 -221 -155 -279
-190 -86 -51 -84 -42 -27 -135 27 -45 50 -86 50 -91 0 -5 4 -9 9 -9 5 0 14
-13 21 -30 7 -16 16 -30 21 -30 5 0 9 -4 9 -10 0 -8 31 -54 78 -115 4 -5 21
-28 37 -50 37 -49 65 -83 88 -107 9 -10 17 -21 17 -24 0 -3 6 -11 12 -18 7 -7
45 -48 83 -91 89 -98 181 -190 270 -269 38 -33 82 -73 98 -89 16 -15 32 -27
37 -27 47 0 -30 -55 -193 -140 -37 -19 -67 -38 -67 -41 0 -3 64 25 143 64 459
227 722 359 733 368 7 6 19 12 26 13 15 3 191 88 198 97 3 3 50 28 105 55 457
229 449 225 428 246 -15 14 -37 20 -82 22 -53 3 -67 8 -92 32 -22 21 -28 35
-24 51 4 16 -1 25 -16 34 -21 11 -119 107 -119 116 0 3 19 3 43 0 24 -3 50 -1
58 4 11 8 10 13 -10 27 -14 9 -33 18 -43 18 -10 1 -22 2 -27 3 -5 0 -14 13
-20 29 -7 15 -30 38 -51 51 -22 14 -55 39 -75 55 -34 30 -35 32 -19 55 15 20
18 21 26 7 14 -24 96 -77 115 -74 10 2 27 12 39 23 45 44 132 122 156 141 27
21 53 63 44 71 -6 7 30 81 54 108 20 23 50 97 50 123 0 9 -6 28 -13 42 -11 23
-12 41 -8 107 0 12 7 28 15 35 26 27 44 115 41 205 -1 49 -5 96 -9 105 -4 9 0
32 9 52 17 36 17 73 -1 92 -6 7 -33 23 -62 38 -28 14 -53 30 -56 35 -3 5 1 29
8 55 l14 46 -26 0 c-15 -1 -49 -14 -77 -30 -27 -16 -70 -39 -95 -52 -137 -73
-255 -136 -332 -179 -48 -27 -90 -49 -92 -49 -3 0 -27 -13 -53 -28 -26 -16
-93 -52 -147 -82 -55 -29 -142 -77 -193 -106 -51 -29 -93 -49 -93 -46 0 4 -4
2 -8 -3 -4 -6 -20 -17 -37 -25 -16 -8 -32 -17 -35 -20 -3 -3 -23 -14 -45 -26
-88 -46 -161 -87 -172 -96 -7 -6 -13 -7 -12 -2 0 5 19 24 42 43 51 40 167 142
219 192 21 20 38 35 38 32 0 -2 17 13 39 34 21 21 83 79 136 128 54 50 110
101 125 115 15 14 61 57 101 96 l74 70 65 -1 c43 -1 73 4 92 14 32 18 61 72
63 116 1 34 12 58 24 50 17 -10 65 59 75 106 3 13 9 38 14 55 l10 31 -97 -49
c-53 -27 -111 -59 -128 -70 -18 -11 -33 -16 -33 -12 0 4 -8 0 -17 -8 -10 -9
-42 -28 -70 -42 l-53 -26 0 61 c0 93 17 137 59 158 20 10 41 16 47 14 22 -8
115 164 139 260 12 43 30 138 40 212 8 55 13 82 24 140 7 36 6 52 -2 57 -18
12 -21 11 -76 -27 -40 -28 -53 -32 -57 -21 -3 8 -1 24 6 35 9 18 8 21 -10 21
-38 0 -85 -27 -119 -69 -19 -22 -38 -41 -43 -41 -5 0 -14 13 -19 29 -6 16 -16
32 -24 35 -13 4 -65 -38 -65 -54 0 -3 -19 -7 -42 -7 -24 0 -68 -3 -98 -7 l-55
-7 35 24 c19 13 58 36 85 51 59 31 169 132 160 146 -3 6 -15 10 -25 10 -10 0
-26 7 -35 17 -15 15 -15 17 -1 25 25 14 48 66 38 85 -11 19 -4 53 12 54 34 4
68 18 78 33 5 8 11 7 20 -2 14 -14 41 -16 66 -3 9 5 43 19 74 31 83 32 158
113 142 154 -8 21 -78 46 -134 49 -53 1 -56 8 -10 27 47 19 36 36 -32 50 -122
26 -142 57 -60 98 108 54 377 195 390 205 6 5 12 6 12 1 0 -5 4 -4 8 2 4 5 32
23 62 38 38 20 50 23 40 11 -7 -9 -14 -24 -15 -34 -1 -17 -34 -61 -47 -61 -17
0 -78 -69 -93 -105 -9 -22 -29 -52 -46 -67 -34 -32 -38 -46 -6 -26 12 8 63 37
112 63 50 26 117 62 150 80 33 18 110 58 170 90 61 32 116 62 123 67 6 6 12 7
12 3 0 -4 6 -3 13 3 16 13 69 43 180 99 50 26 94 50 97 53 3 3 50 28 105 55
55 28 131 68 170 89 38 22 76 39 83 39 6 0 12 4 12 9 0 4 7 8 15 8 8 0 15 5
15 12 0 6 3 9 6 5 3 -3 27 7 52 22 26 15 83 45 127 66 44 22 82 42 85 46 3 3
23 13 45 23 22 11 42 22 45 25 3 3 36 21 73 39 l69 33 -24 19 c-14 10 -37 22
-52 26 -40 10 -42 29 -10 77 15 23 27 51 25 62 -5 34 -42 113 -60 130 -16 14
-19 14 -31 0 -11 -13 -10 -23 6 -57 10 -23 18 -48 16 -55 -2 -11 12 -18 21
-10 2 1 12 -6 21 -16 10 -10 17 -19 15 -20 -2 -1 -29 -15 -59 -31 -153 -80
-268 -140 -295 -156 -16 -10 -79 -43 -140 -75 -60 -32 -137 -72 -170 -90 -33
-18 -114 -61 -180 -95 -242 -126 -290 -152 -299 -161 -6 -5 -18 -9 -28 -9 -10
0 -18 -4 -18 -8 0 -4 -15 -15 -32 -23 -18 -8 -76 -38 -129 -66 -53 -29 -99
-50 -102 -47 -10 11 31 76 59 93 19 11 45 46 69 92 21 41 42 76 47 77 4 2 8
10 8 17 0 22 25 62 36 58 6 -2 43 12 82 32 39 19 80 35 90 35 20 0 172 106
172 121 0 5 17 16 38 24 29 12 38 21 37 38 -1 42 -26 94 -50 107 -14 7 -25 17
-25 21 0 5 -20 22 -45 39 -25 17 -49 39 -55 49 -9 17 -7 18 23 11 17 -4 53
-16 78 -25 l46 -18 61 64 c42 43 60 70 56 81 -3 10 0 28 6 40 9 20 9 21 -2 5
-45 -65 -53 -70 -135 -78 -43 -4 -91 -10 -108 -13 -45 -9 -11 9 65 33 62 20
92 40 133 90 l18 22 -41 -5 c-46 -5 -55 9 -11 17 42 9 83 55 77 87 -3 16 3 35
14 50 40 52 12 70 -62 41 -39 -15 -35 1 4 18 35 16 58 33 94 71 29 30 31 44 4
30 -11 -6 -20 -15 -20 -20 0 -5 -16 -21 -36 -36 -30 -23 -80 -42 -155 -59 -43
-9 -126 -62 -188 -119 -91 -83 -171 -121 -276 -131 -39 -4 -39 -4 -10 6 17 6
37 13 45 16 8 3 24 8 35 10 10 2 22 7 25 11 3 4 17 13 31 21 38 19 92 69 124
116 16 22 49 59 74 83 l46 43 -60 -26 c-33 -14 -70 -33 -83 -41 -13 -8 -29
-13 -35 -10 -9 3 -8 5 1 5 7 1 23 10 35 22 27 26 186 103 194 95 3 -3 11 -1
18 4 6 5 20 11 31 13 26 4 59 33 102 92 71 96 150 151 235 163 28 3 37 9 33
19 -4 8 -6 16 -6 18 0 2 -17 9 -37 16 l-38 12 38 17 c20 9 34 20 30 23 -3 4 7
8 23 8 16 1 45 3 64 3 69 4 149 -43 196 -114 39 -59 66 -36 39 32 -7 18 -28
29 -64 34 -31 4 -39 13 -21 25 20 13 61 8 83 -10 22 -18 47 -68 47 -95 0 -32
18 -6 23 34 5 41 -8 84 -23 75 -13 -8 -13 5 0 25 12 19 29 20 54 4 10 -7 24
-10 31 -8 17 7 12 -65 -8 -123 -8 -24 -14 -43 -13 -43 1 0 17 4 35 10 45 13
61 -1 61 -52 0 -22 8 -52 18 -66 10 -15 24 -47 31 -72 7 -25 16 -52 21 -60 14
-29 5 -163 -13 -195 -53 -90 -98 -126 -50 -39 14 24 22 44 18 44 -4 0 -3 6 2
13 11 14 10 149 -1 190 -5 15 -12 27 -17 27 -5 0 -9 5 -9 11 0 14 -30 38 -47
39 -7 0 -13 -4 -13 -10 0 -5 6 -10 14 -10 26 0 63 -72 64 -127 1 -29 -3 -55
-8 -58 -6 -4 -8 -10 -6 -14 3 -4 1 -13 -4 -21 -5 -8 -7 5 -5 35 3 52 -3 85
-15 85 -4 0 -7 -10 -6 -22 1 -13 -3 -26 -9 -30 -6 -5 -6 -8 2 -8 7 0 10 -6 8
-12 -3 -7 -7 -31 -9 -53 -2 -22 -11 -57 -19 -78 -17 -40 -14 -91 8 -117 23
-27 43 -74 50 -117 4 -24 11 -43 17 -43 13 0 71 32 80 45 4 6 8 6 8 1 0 -5 6
-4 13 2 11 8 70 41 222 121 28 14 52 29 53 34 2 4 9 7 14 7 6 0 75 35 152 77
200 108 210 114 224 125 6 6 12 7 12 2 0 -5 4 -4 8 1 4 6 30 22 57 36 28 15
75 40 105 57 30 16 71 38 90 48 19 11 38 24 42 29 4 6 8 6 8 2 0 -5 12 0 28
11 15 10 41 26 57 34 56 28 420 230 433 240 6 6 12 7 12 2 0 -5 4 -4 8 1 4 6
68 44 142 85 74 41 138 78 141 83 3 5 9 8 13 7 9 -2 136 69 159 88 9 8 17 12
17 9 0 -3 46 21 103 55 56 33 111 64 122 69 11 5 36 19 55 30 40 24 259 148
328 186 26 14 52 30 57 35 10 9 -90 -36 -135 -62 -14 -8 -27 -15 -30 -16 -3
-1 -15 -5 -27 -9 -13 -4 -23 -12 -23 -18 0 -6 -3 -7 -7 -4 -3 4 -15 -1 -26
-10 -10 -10 -21 -17 -23 -16 -4 3 -215 -98 -224 -107 -10 -10 -642 -325 -653
-326 -7 0 -23 7 -37 17 -14 9 -81 45 -150 81 -111 56 -178 88 -287 134 -18 8
-48 20 -65 28 -32 13 -318 113 -328 114 -3 0 -12 3 -20 5 -19 7 -177 47 -199
52 -9 2 -38 9 -66 15 -66 15 -76 17 -121 24 -22 3 -50 8 -64 11 -51 9 -106 17
-135 20 -16 2 -33 4 -37 4 -15 2 -8 19 10 24 9 3 49 24 87 46 39 22 90 50 115
62 25 13 47 25 50 28 3 4 23 15 45 26 22 11 48 26 58 34 9 8 17 10 17 5 0 -5
4 -4 8 2 4 6 48 32 97 60 50 27 99 54 110 61 11 7 29 17 40 22 17 9 88 50 150
88 11 6 18 13 15 15 -3 2 -78 -33 -167 -78z m-1583 -1444 c0 -5 -5 -10 -11
-10 -5 0 -7 5 -4 10 3 6 8 10 11 10 2 0 4 -4 4 -10z m-1240 -1498 c0 -11 -22
-32 -32 -32 -5 0 -4 9 2 20 11 20 30 28 30 12z"/>
<path d="M12937 10458 c-54 -27 -97 -52 -94 -54 4 -4 193 90 206 102 15 14
-27 -4 -112 -48z"/>
<path d="M12738 10351 c-49 -25 -88 -49 -88 -52 0 -3 39 14 88 39 96 49 97 50
91 56 -2 2 -43 -17 -91 -43z"/>
<path d="M9795 10320 c-3 -5 -1 -10 4 -10 6 0 11 5 11 10 0 6 -2 10 -4 10 -3
0 -8 -4 -11 -10z"/>
<path d="M12610 10280 c0 -5 7 -7 15 -4 8 4 15 8 15 10 0 2 -7 4 -15 4 -8 0
-15 -4 -15 -10z"/>
<path d="M12527 10241 c-37 -24 -48 -37 -17 -21 14 8 36 19 50 27 14 7 18 13
10 12 -8 0 -27 -8 -43 -18z"/>
<path d="M9595 10210 c-3 -6 1 -7 9 -4 18 7 21 14 7 14 -6 0 -13 -4 -16 -10z"/>
<path d="M12433 10187 c-24 -11 -43 -24 -43 -28 0 -4 20 4 45 18 25 13 45 27
45 29 0 5 1 6 -47 -19z"/>
<path d="M12200 10069 c-96 -49 -179 -89 -184 -89 -5 0 -17 -6 -25 -13 -9 -7
-36 -22 -61 -32 -25 -11 -48 -24 -52 -30 -5 -6 -8 -6 -8 0 0 7 -3 7 -8 0 -4
-5 -36 -24 -72 -42 -206 -100 -597 -297 -607 -305 -7 -6 -13 -7 -13 -3 0 4 -6
3 -12 -3 -23 -18 -130 -72 -144 -72 -7 0 -14 -3 -16 -7 -3 -9 -112 -64 -125
-64 -4 0 -15 -6 -23 -13 -8 -6 -91 -50 -185 -97 -93 -46 -172 -87 -175 -90 -3
-4 -15 -9 -27 -13 -12 -4 -55 -25 -94 -47 -39 -21 -78 -39 -85 -39 -7 0 -14
-4 -16 -8 -2 -5 -84 -49 -183 -98 -99 -49 -182 -91 -185 -94 -3 -3 -34 -20
-70 -37 -36 -18 -134 -68 -218 -112 l-153 -80 -24 21 c-14 12 -25 25 -25 30 0
5 -10 19 -22 32 -13 13 -43 47 -68 76 -25 29 -53 62 -63 74 -104 122 -490 476
-518 476 -24 0 11 33 59 57 32 15 59 30 62 33 3 4 39 24 80 46 41 21 77 42 78
47 2 4 7 7 12 7 8 0 220 117 270 149 14 8 29 16 34 16 5 0 11 7 13 15 4 13 3
13 -6 0 -6 -8 -11 -11 -11 -6 0 5 -9 1 -19 -8 -11 -10 -25 -19 -33 -20 -7 -1
-56 -24 -108 -51 -52 -27 -97 -49 -100 -50 -3 0 -25 -12 -50 -25 -25 -13 -47
-25 -50 -25 -17 -4 -286 -141 -288 -147 -2 -4 -10 -8 -17 -8 -8 0 -55 -22
-106 -50 -51 -27 -98 -50 -105 -50 -7 0 -14 -3 -16 -7 -4 -10 -94 -56 -104
-53 -4 1 -10 -2 -13 -7 -3 -4 -69 -39 -146 -78 -77 -38 -152 -78 -167 -88 -16
-10 -28 -16 -28 -14 0 2 -28 -10 -62 -28 -35 -18 -144 -74 -243 -125 -99 -51
-245 -126 -325 -168 -300 -157 -387 -202 -439 -227 l-54 -26 23 -16 c13 -9 32
-25 41 -34 10 -10 36 -23 58 -30 27 -8 41 -18 41 -29 0 -17 19 -27 70 -37 28
-5 52 -22 45 -33 -7 -11 29 -46 74 -70 22 -13 37 -28 34 -35 -2 -7 3 -37 11
-66 9 -29 16 -70 16 -91 0 -25 9 -53 26 -78 18 -27 28 -57 30 -89 1 -27 10
-64 20 -82 9 -18 18 -49 20 -68 5 -54 31 -104 65 -126 l31 -20 -7 -84 -6 -84
25 17 c14 9 26 14 26 11 0 -4 12 2 28 12 15 11 56 34 92 53 36 18 79 41 95 51
17 10 50 28 75 41 168 88 286 152 295 158 6 4 55 31 110 60 55 29 109 58 120
64 11 6 23 16 27 21 4 6 8 7 8 2 0 -4 18 4 40 18 22 14 44 25 49 25 5 0 16 6
23 13 8 6 41 26 73 42 33 17 63 34 66 38 3 5 12 9 20 10 8 2 25 10 39 20 13 9
30 17 37 17 6 0 18 6 25 13 16 14 30 22 118 67 36 19 67 36 70 40 3 3 30 18
60 32 30 15 84 44 120 64 36 20 108 59 160 87 52 28 97 53 100 56 3 3 26 16
52 29 25 12 115 61 199 107 84 47 156 85 160 85 4 0 14 6 21 13 7 7 32 21 56
31 23 11 42 23 42 28 0 5 4 7 9 4 5 -3 14 1 21 9 7 8 17 15 22 15 5 0 43 20
86 44 42 24 102 57 132 73 30 17 71 39 90 50 38 21 137 76 185 102 17 9 32 18
35 21 3 3 23 14 45 25 22 11 65 34 95 51 30 17 76 43 103 58 174 97 210 116
287 161 36 20 74 41 85 46 11 5 27 13 35 19 23 15 251 143 295 165 22 11 42
23 45 26 3 4 32 21 65 38 33 18 74 40 90 50 17 9 59 34 95 53 36 20 94 53 130
73 36 21 90 51 120 68 30 17 57 34 58 39 2 4 10 8 18 8 7 0 37 15 66 33 29 19
89 53 133 77 44 24 92 51 107 61 14 11 31 19 37 19 6 0 11 5 11 10 0 12 23 23
-180 -81z"/>
<path d="M9530 9859 c0 -5 5 -7 10 -4 6 3 10 8 10 11 0 2 -4 4 -10 4 -5 0 -10
-5 -10 -11z"/>
<path d="M9439 9809 l-24 -20 28 17 c15 9 27 18 27 20 0 8 -8 4 -31 -17z"/>
<path d="M12146 9375 c-11 -8 -15 -15 -9 -15 6 0 16 7 23 15 16 19 11 19 -14
0z"/>
<path d="M12010 9305 c-41 -23 -79 -40 -84 -37 -5 3 -6 0 -2 -6 7 -11 123 45
156 75 21 19 13 16 -70 -32z"/>
<path d="M11880 9240 c-24 -15 -7 -18 20 -3 14 7 18 13 10 13 -8 0 -22 -4 -30
-10z"/>
<path d="M11820 9205 c-14 -8 -20 -14 -15 -14 6 0 21 6 35 14 14 8 21 14 15
14 -5 0 -21 -6 -35 -14z"/>
<path d="M11766 9175 c-11 -8 -15 -15 -9 -15 6 0 16 7 23 15 16 19 11 19 -14
0z"/>
<path d="M11708 9144 c-38 -20 -36 -28 2 -9 17 9 30 18 30 20 0 7 -1 6 -32
-11z"/>
<path d="M11616 9095 c-22 -13 -43 -22 -48 -19 -4 3 -8 1 -8 -3 0 -5 -42 -29
-92 -53 -51 -24 -119 -59 -151 -77 -31 -18 -61 -33 -65 -34 -34 -11 -62 -25
-62 -31 0 -4 -5 -8 -12 -8 -12 0 -180 -81 -188 -91 -6 -7 -53 -23 -59 -20 -2
2 -7 -1 -10 -6 -3 -5 -148 -80 -321 -168 -173 -87 -422 -213 -553 -279 -131
-67 -307 -155 -390 -198 -84 -42 -158 -81 -164 -88 -7 -6 -13 -9 -13 -6 0 3
-57 -25 -127 -61 -71 -37 -159 -82 -198 -101 -38 -19 -73 -39 -76 -44 -3 -5
-9 -9 -13 -8 -7 2 -176 -80 -186 -90 -9 -9 -98 -52 -107 -52 -4 0 -15 -5 -23
-12 -8 -7 -36 -23 -62 -35 -27 -13 -50 -26 -53 -31 -3 -4 -17 -11 -32 -15 -15
-3 -30 -10 -33 -14 -3 -4 -48 -29 -100 -55 -186 -95 -345 -179 -357 -189 -7
-5 -13 -6 -13 -2 0 5 -8 1 -17 -7 -10 -8 -56 -34 -103 -58 -47 -23 -107 -55
-135 -70 -27 -15 -113 -60 -190 -100 -329 -173 -300 -154 -300 -192 0 -18 8
-59 17 -90 10 -32 20 -86 23 -120 8 -89 13 -107 39 -142 13 -17 26 -39 29 -49
4 -9 19 -23 34 -29 57 -25 80 -60 89 -133 4 -27 14 -48 32 -64 53 -46 78 -66
117 -95 22 -16 45 -34 50 -40 6 -6 18 -15 27 -21 8 -5 87 -58 174 -116 137
-92 286 -181 382 -227 15 -7 34 -17 42 -23 8 -5 23 -12 33 -15 9 -4 17 -11 17
-16 0 -10 141 60 152 77 4 5 8 6 8 1 0 -5 9 -1 20 9 11 10 20 15 20 11 0 -4
12 1 28 11 15 11 61 37 102 58 41 21 77 41 80 45 3 4 16 11 30 15 14 4 36 16
49 26 13 11 27 19 31 19 4 0 56 27 115 60 59 33 110 60 112 60 3 0 18 9 34 21
16 11 29 17 29 13 0 -3 6 -2 13 3 6 6 35 23 62 38 28 16 82 46 120 67 39 22
87 46 108 55 20 9 37 20 37 25 0 4 9 8 20 8 11 0 20 4 20 9 0 5 15 14 33 22
17 7 34 15 37 18 3 3 19 13 35 22 96 50 141 75 147 84 4 5 8 7 8 2 0 -4 17 3
38 16 20 13 71 42 112 64 41 22 91 49 110 60 19 11 76 41 125 68 50 27 92 51
95 54 3 3 25 16 50 29 94 49 216 116 252 138 21 13 39 24 42 24 2 0 63 34 136
75 73 41 136 75 141 75 5 0 9 3 9 8 0 4 22 17 50 30 27 12 52 27 55 32 3 6 13
10 20 10 8 0 24 8 35 18 11 9 24 17 28 17 4 0 39 19 77 42 39 22 90 53 115 67
25 15 57 31 73 37 15 6 27 15 27 21 0 5 4 7 9 3 5 -3 12 -1 16 4 3 5 18 16 33
24 15 8 71 39 126 71 54 31 102 56 107 56 5 0 9 4 9 8 0 5 18 16 41 26 22 10
38 20 36 23 -3 2 -34 -12 -71 -32 -36 -19 -66 -32 -66 -28 0 5 -4 3 -8 -3 -4
-7 -34 -23 -67 -37 -33 -14 -82 -37 -108 -51 -26 -14 -55 -26 -63 -26 -7 0
-14 -4 -14 -10 0 -5 -5 -10 -11 -10 -12 0 -428 -207 -446 -222 -7 -6 -13 -8
-13 -4 0 3 -15 -3 -34 -14 -59 -33 -111 -58 -120 -58 -5 0 -12 -4 -15 -9 -10
-13 -88 -53 -105 -53 -8 0 -16 -3 -18 -7 -1 -5 -100 -57 -218 -117 -118 -60
-229 -117 -247 -128 -37 -22 -38 -20 -48 67 -5 48 -9 76 -20 140 -3 17 -8 46
-10 65 -3 19 -8 46 -11 60 -3 14 -8 36 -10 50 -3 14 -10 43 -16 65 -5 22 -11
47 -13 55 -10 52 -47 183 -67 240 -4 14 -10 34 -12 45 -2 11 -10 34 -17 50 -6
17 -13 35 -14 41 -2 5 -15 39 -29 75 -15 35 -29 71 -31 80 -2 9 -8 25 -13 35
-6 11 -18 37 -28 59 -9 22 -32 71 -50 110 -19 38 -34 71 -34 72 0 5 75 50 150
90 109 59 184 100 279 155 46 26 86 48 87 48 2 0 52 28 112 61 125 72 228 128
259 143 13 6 23 14 23 19 0 4 5 7 10 7 6 0 28 11 50 25 22 14 40 22 40 18 0
-5 4 -3 8 3 4 6 43 31 87 54 44 23 85 46 90 50 11 9 66 40 134 76 24 13 50 29
57 35 8 6 14 8 14 3 0 -5 4 -4 8 2 8 12 166 104 311 181 61 32 122 72 111 72
-3 0 -23 -10 -44 -24z"/>
<path d="M2309 8053 c-13 -15 -12 -15 9 -4 23 12 28 21 13 21 -5 0 -15 -7 -22
-17z"/>
<path d="M2250 8019 c0 -5 5 -7 10 -4 6 3 10 8 10 11 0 2 -4 4 -10 4 -5 0 -10
-5 -10 -11z"/>
<path d="M2194 7994 c-18 -14 -18 -14 6 -3 31 14 36 19 24 19 -6 0 -19 -7 -30
-16z"/>
<path d="M2145 7970 c-3 -6 1 -7 9 -4 18 7 21 14 7 14 -6 0 -13 -4 -16 -10z"/>
<path d="M2105 7950 c-3 -6 1 -7 9 -4 18 7 21 14 7 14 -6 0 -13 -4 -16 -10z"/>
<path d="M12154 7724 c-18 -14 -18 -15 4 -4 12 6 22 13 22 15 0 8 -5 6 -26
-11z"/>
<path d="M12000 7650 c-8 -5 -12 -11 -10 -14 3 -2 14 2 24 10 22 15 10 19 -14
4z"/>
<path d="M4987 7508 c-32 -17 -57 -31 -55 -33 2 -2 35 -6 73 -8 39 -3 75 -6
80 -7 6 -1 26 -2 45 -1 34 2 34 3 10 12 -32 13 -71 49 -64 60 10 18 -32 6 -89
-23z"/>
<path d="M5663 7475 c-33 -32 -39 -42 -28 -52 11 -10 11 -20 -1 -59 -8 -26
-13 -69 -11 -96 2 -41 -1 -53 -18 -66 -26 -21 -89 -146 -76 -150 19 -6 -11
-70 -36 -77 -14 -3 -28 -17 -34 -33 -21 -60 -55 -114 -135 -222 -46 -62 -84
-116 -84 -121 0 -4 -6 -14 -13 -21 -7 -7 -24 -35 -37 -63 -13 -27 -26 -52 -29
-55 -3 -3 -14 -22 -23 -42 -14 -31 -15 -36 -3 -31 8 3 15 10 15 15 0 13 75
104 113 139 33 29 90 34 95 8 2 -13 -44 -83 -110 -164 -47 -57 -103 -125 -142
-170 -14 -16 -23 -31 -21 -33 3 -3 161 77 408 207 43 22 82 41 87 41 10 0 6
-67 -5 -78 -4 -4 -37 -40 -73 -81 -108 -119 -193 -203 -263 -258 -101 -80
-102 -83 -35 -82 69 2 116 -15 109 -40 -2 -10 3 -23 11 -30 13 -11 29 -6 97
33 45 25 85 46 88 46 4 0 18 8 31 17 14 10 29 18 35 19 5 1 39 19 75 39 36 20
74 41 85 46 11 5 43 22 70 37 28 15 100 54 160 86 61 32 116 63 123 68 6 6 12
7 12 2 0 -5 4 -4 8 2 4 6 70 44 147 84 77 40 158 83 180 95 22 12 87 46 145
76 58 30 107 57 110 60 6 6 31 16 44 17 5 0 12 4 15 9 11 15 88 53 95 46 3 -3
6 -1 6 6 0 7 4 10 9 6 5 -3 16 2 24 10 9 8 23 15 31 15 9 0 16 5 16 10 0 6 6
10 14 10 22 0 25 22 8 52 -9 15 -14 29 -11 30 2 2 22 12 44 23 22 11 40 26 40
34 0 20 38 31 58 16 9 -7 20 -27 23 -46 4 -19 4 -31 0 -27 -4 3 -29 -6 -54
-21 -26 -15 -55 -30 -65 -34 -20 -7 -14 -27 8 -27 9 0 12 -11 10 -35 -2 -19
-6 -38 -9 -43 -5 -8 11 -34 66 -107 54 -70 220 -205 254 -205 7 0 15 -5 17
-10 3 -6 4 -5 3 2 -1 6 -11 16 -21 22 -11 6 -24 16 -31 21 -6 6 -30 26 -53 45
-23 19 -57 49 -75 65 -18 17 -51 47 -74 67 -44 40 -61 90 -38 114 14 13 47 -9
126 -84 41 -39 49 -29 21 26 -13 25 -16 43 -10 49 6 6 0 27 -17 59 -36 66 -45
102 -31 111 6 5 58 33 115 63 l104 55 2 61 c1 53 7 70 39 118 22 33 37 68 37
85 0 17 4 32 9 35 5 3 7 52 6 108 -4 123 -4 116 -13 102 -4 -6 -32 -24 -62
-39 -78 -41 -138 -72 -195 -104 -27 -15 -99 -54 -160 -86 -60 -32 -141 -75
-180 -95 -38 -21 -108 -57 -155 -81 -47 -24 -87 -46 -90 -49 -3 -3 -39 -22
-80 -43 -41 -21 -118 -60 -170 -88 -52 -28 -153 -80 -225 -117 -71 -37 -133
-71 -137 -77 -4 -5 -8 -6 -8 -1 0 5 -6 4 -12 -1 -7 -6 -67 -38 -133 -73 -66
-34 -144 -76 -173 -92 -64 -36 -76 -32 -25 8 64 50 103 85 101 92 -1 4 2 15 6
24 9 19 -5 37 -41 56 -12 7 -24 26 -28 43 -8 35 -60 99 -81 99 -8 0 -14 5 -14
11 0 5 -5 7 -10 4 -6 -4 -17 -2 -25 5 -11 9 -11 18 -2 43 15 44 68 142 109
204 30 42 35 59 34 100 -1 30 5 60 16 81 22 39 22 49 4 68 -13 12 -13 21 0 64
17 56 23 115 15 128 -3 4 -25 -10 -48 -33z"/>
<path d="M11566 6925 c-11 -8 -15 -15 -9 -15 6 0 16 7 23 15 16 19 11 19 -14
0z"/>
<path d="M11515 6901 c-6 -5 -43 -26 -82 -46 -75 -37 -102 -57 -35 -27 66 31
142 72 142 77 0 8 -15 6 -25 -4z"/>
<path d="M11316 6795 c-11 -8 -15 -15 -10 -15 6 0 19 7 30 15 10 8 15 14 9 14
-5 0 -19 -6 -29 -14z"/>
<path d="M11264 6765 c-10 -8 -14 -15 -8 -15 6 0 17 7 24 15 16 19 9 19 -16 0z"/>
<path d="M11206 6734 c-11 -8 -16 -14 -10 -14 13 0 39 18 34 24 -3 2 -14 -2
-24 -10z"/>
<path d="M11125 6696 c-22 -11 -47 -26 -55 -31 -8 -5 -17 -10 -20 -11 -13 -2
-66 -30 -71 -37 -3 -5 -8 -8 -10 -7 -6 2 -43 -13 -49 -19 -5 -6 -180 -94 -190
-96 -7 -1 -323 -162 -366 -185 -19 -11 -35 -19 -37 -19 -3 2 -121 -55 -127
-61 -3 -3 -162 -85 -355 -182 -192 -97 -393 -198 -445 -224 -52 -26 -98 -52
-101 -57 -3 -5 -9 -8 -13 -7 -4 1 -43 -17 -86 -40 -44 -22 -83 -40 -86 -40 -4
1 -10 -2 -13 -7 -3 -5 -73 -43 -156 -85 -82 -42 -184 -94 -225 -115 -41 -21
-77 -40 -80 -43 -3 -3 -18 -12 -35 -20 -16 -8 -74 -38 -127 -66 -54 -29 -98
-49 -98 -46 0 4 -4 3 -8 -3 -4 -5 -34 -24 -67 -41 -61 -32 -198 -104 -340
-179 -44 -23 -143 -75 -220 -115 -77 -40 -153 -80 -170 -90 -30 -17 -137 -74
-309 -164 -49 -26 -121 -65 -160 -86 -39 -22 -105 -57 -146 -79 -63 -33 -75
-43 -73 -63 13 -141 12 -157 -11 -211 -20 -44 -25 -75 -29 -179 -3 -69 -7
-130 -10 -135 -3 -5 -8 -33 -12 -62 -5 -47 -44 -125 -76 -151 -19 -16 -25 -67
-13 -102 10 -28 11 -53 4 -95 -6 -32 -10 -59 -10 -59 0 -1 -17 -13 -38 -27
-24 -17 -45 -24 -59 -21 -16 4 -30 -3 -54 -27 -44 -45 -68 -106 -75 -188 -5
-61 -3 -77 19 -123 31 -66 37 -84 43 -128 5 -34 4 -36 -55 -65 -55 -27 -74
-44 -53 -46 59 -7 72 -6 72 4 0 36 73 89 240 175 161 83 261 134 445 231 39
20 72 39 73 44 2 4 11 7 21 7 9 0 22 5 28 11 6 6 39 25 74 43 119 60 264 139
274 147 5 5 15 9 22 9 8 0 19 5 26 11 14 12 88 52 197 106 41 21 77 40 80 43
3 3 86 49 185 102 99 52 207 110 240 128 33 17 83 44 110 58 28 14 58 33 68
41 9 8 17 11 17 7 0 -3 17 4 38 17 20 14 55 33 77 44 22 11 60 31 85 45 53 30
161 88 245 133 33 18 105 57 160 88 145 81 185 102 235 129 25 12 47 26 48 31
2 4 12 7 23 7 10 0 19 4 19 8 0 5 19 17 43 28 23 10 44 22 47 26 3 4 17 12 30
18 14 6 48 23 75 39 28 16 70 40 95 53 56 31 124 69 220 123 41 23 102 57 135
75 33 18 76 42 95 53 19 10 53 29 75 40 22 12 42 24 45 28 3 3 21 13 40 23 19
9 44 23 55 29 12 7 71 41 133 76 110 63 142 89 66 54 -22 -10 -41 -20 -44 -23
-3 -3 -113 -59 -245 -124 -132 -66 -248 -126 -257 -134 -10 -8 -18 -12 -18 -9
0 3 -61 -26 -136 -64 -75 -39 -137 -69 -139 -67 -1 2 11 32 27 67 17 35 31 69
32 75 1 6 6 18 11 26 5 8 10 20 12 25 1 6 16 48 33 95 39 102 42 112 46 125 1
6 12 39 24 75 20 62 24 76 34 118 2 9 12 46 21 82 9 36 19 76 21 90 3 14 10
43 16 65 6 22 12 51 13 65 2 14 6 41 10 60 8 44 11 60 20 135 3 33 8 71 10 84
3 14 7 68 11 120 3 53 9 99 13 103 3 3 46 27 95 53 122 64 130 69 138 80 4 6
8 7 8 3 0 -4 58 27 130 68 71 40 134 74 140 74 5 0 10 5 10 11 0 5 4 8 9 4 5
-3 12 -1 15 4 4 5 57 37 119 72 61 34 128 71 147 82 19 11 55 31 80 45 25 13
49 28 55 33 16 15 -7 8 -50 -15z"/>
<path d="M7130 6301 c34 -46 109 -151 145 -203 17 -24 38 -52 48 -62 9 -11 17
-23 17 -28 0 -4 7 -16 15 -25 40 -49 115 -155 115 -163 0 -6 3 -10 8 -10 4 0
18 -18 32 -40 14 -22 28 -40 32 -40 5 0 8 -6 8 -13 0 -8 9 -22 20 -32 11 -10
20 -24 20 -31 0 -7 3 -14 8 -16 12 -5 72 -86 72 -97 0 -6 4 -11 9 -11 12 0 33
-55 29 -77 -2 -12 -13 -18 -31 -19 -21 -1 -39 10 -70 44 -23 25 -50 53 -59 64
-10 10 -18 20 -18 23 0 3 -12 18 -27 33 -16 15 -40 43 -54 62 -15 19 -37 46
-50 60 -13 14 -49 57 -79 95 -30 39 -57 72 -60 75 -3 3 -30 38 -59 78 -30 39
-55 72 -57 72 -2 0 -10 -15 -18 -34 -16 -38 -15 -52 7 -146 8 -36 18 -83 22
-105 10 -57 14 -82 19 -107 3 -13 8 -39 11 -58 27 -152 42 -210 64 -253 11
-22 17 -49 15 -65 -3 -15 -6 -52 -7 -84 -2 -39 -8 -63 -22 -80 -30 -35 -129
-131 -151 -146 -18 -12 23 9 261 133 119 62 289 152 400 211 44 24 103 55 130
69 28 14 91 47 140 74 50 27 119 64 155 82 36 19 67 37 68 41 2 5 12 8 23 8
10 0 19 5 19 10 0 6 5 10 11 10 7 0 27 9 46 21 l34 21 -98 50 c-54 28 -110 59
-125 69 -14 10 -33 19 -42 19 -9 0 -16 5 -16 10 0 6 -8 14 -17 17 -25 9 -256
164 -265 177 -5 7 -8 7 -8 1 0 -5 -6 -3 -13 5 -7 8 -24 21 -39 29 -16 8 -28
18 -28 23 0 4 -5 8 -11 8 -6 0 -39 20 -73 45 -35 25 -69 45 -76 45 -8 0 -11
-3 -7 -6 10 -10 -14 -64 -34 -75 -24 -12 -70 10 -87 43 -6 12 -15 50 -19 82
-4 33 -13 61 -19 63 -7 2 -10 -5 -7 -20 8 -41 -17 -50 -73 -26 -46 21 -153 84
-164 98 -3 3 -14 13 -25 21 -15 12 -14 8 5 -19z"/>
<path d="M1858 5784 c-37 -19 -36 -25 2 -11 17 6 30 15 30 19 0 10 0 10 -32
-8z"/>
<path d="M1798 5743 c7 -3 16 -2 19 1 4 3 -2 6 -13 5 -11 0 -14 -3 -6 -6z"/>
<path d="M1566 5625 c-11 -8 -15 -15 -9 -15 6 0 16 7 23 15 16 19 11 19 -14 0z"/>
<path d="M10790 5229 c-22 -18 -22 -19 -3 -10 12 6 25 16 28 21 9 15 3 12 -25
-11z"/>
<path d="M7008 4927 c-10 -10 -21 -18 -25 -18 -4 0 -78 -37 -163 -82 -85 -45
-158 -80 -162 -79 -5 1 -8 -2 -8 -7 0 -5 -15 -15 -32 -22 -18 -7 -63 -30 -100
-50 -37 -20 -69 -34 -72 -31 -3 3 -6 1 -6 -4 0 -6 -25 -21 -55 -35 -30 -13
-55 -27 -55 -31 0 -5 -6 -8 -13 -8 -7 0 -30 -10 -52 -22 -69 -37 -316 -166
-415 -215 -52 -27 -97 -51 -100 -54 -6 -6 -31 -16 -44 -17 -5 0 -12 -4 -15 -9
-3 -5 -34 -22 -68 -38 -35 -16 -63 -33 -63 -37 0 -4 -3 -7 -7 -6 -5 1 -29 -8
-55 -21 l-47 -23 4 -60 c2 -33 7 -74 10 -90 9 -38 -16 -91 -52 -108 -15 -7
-31 -13 -35 -12 -5 1 -8 -2 -8 -7 0 -6 -9 -8 -20 -6 -34 7 -22 -12 25 -39 66
-39 136 -32 234 23 41 22 78 41 82 41 5 0 9 5 9 12 0 6 3 8 7 5 3 -4 15 0 25
10 10 9 18 12 18 8 0 -4 8 -1 18 7 9 8 55 35 102 59 47 24 87 46 90 49 3 3 37
21 75 40 39 19 72 38 75 41 3 4 39 23 80 44 41 21 87 46 103 57 15 11 27 16
27 11 0 -4 4 -3 8 2 4 6 34 24 67 41 33 17 94 49 135 71 41 22 134 71 205 108
72 37 131 69 133 70 2 2 -1 26 -6 54 -5 29 -6 54 -1 57 5 3 9 13 9 22 0 10 10
24 22 32 50 35 106 108 106 140 0 3 8 24 17 47 9 23 15 54 13 69 -3 26 -4 27
-20 11z"/>
<path d="M10644 4830 c-12 -5 -25 -13 -28 -19 -4 -5 7 -3 24 5 16 9 30 17 30
20 0 5 0 5 -26 -6z"/>
<path d="M10538 4771 c-52 -24 -62 -37 -13 -17 22 10 44 21 50 27 12 12 7 11
-37 -10z"/>
<path d="M10425 4714 c-16 -9 -50 -28 -75 -42 -25 -15 -47 -27 -50 -27 -3 -1
-23 -12 -45 -26 -22 -13 -42 -24 -45 -25 -17 -3 -59 -25 -65 -34 -3 -5 -11 -8
-16 -5 -5 4 -9 1 -9 -4 0 -6 -6 -11 -13 -11 -8 0 -66 -27 -130 -60 -64 -33
-117 -57 -117 -52 0 4 -4 3 -8 -3 -4 -5 -56 -35 -116 -65 -61 -30 -140 -72
-178 -92 -37 -20 -68 -33 -68 -30 0 4 -4 2 -8 -3 -4 -6 -56 -35 -117 -66 -60
-30 -177 -90 -260 -133 -173 -91 -385 -201 -500 -260 -44 -22 -81 -44 -83 -48
-2 -5 -12 -8 -22 -8 -10 0 -20 -3 -22 -8 -1 -4 -41 -27 -88 -51 -47 -24 -107
-55 -135 -70 -27 -15 -120 -63 -205 -108 -206 -108 -355 -186 -410 -217 -25
-13 -74 -39 -110 -57 -36 -18 -67 -35 -70 -38 -4 -5 -109 -61 -245 -130 -27
-15 -53 -30 -56 -34 -3 -5 -12 -9 -20 -10 -8 -2 -21 -7 -29 -12 -8 -6 -24 -15
-35 -21 -47 -25 -188 -101 -285 -154 -58 -32 -136 -74 -175 -95 -38 -21 -76
-42 -82 -48 -7 -5 -13 -6 -13 -1 0 5 -4 4 -8 -2 -4 -6 -54 -35 -112 -65 -58
-30 -107 -57 -110 -60 -3 -3 -45 -27 -95 -54 -49 -26 -94 -51 -100 -55 -5 -4
-41 -24 -80 -45 -141 -76 -180 -99 -187 -109 -4 -6 -8 -8 -8 -4 0 4 -43 -17
-94 -47 -52 -30 -100 -55 -105 -55 -6 0 -11 -3 -11 -8 0 -4 -14 -13 -31 -21
-17 -7 -74 -38 -127 -69 -54 -30 -110 -62 -127 -70 -16 -8 -42 -24 -57 -34
-16 -11 -28 -16 -28 -11 0 4 -4 3 -8 -3 -4 -6 -35 -26 -69 -43 -35 -17 -63
-34 -63 -36 0 -3 17 3 38 13 20 11 55 27 77 38 22 10 58 29 80 43 22 13 42 24
45 24 6 -1 513 252 750 375 96 49 231 118 300 153 69 35 128 67 131 71 5 8 50
13 204 23 50 3 100 7 113 10 13 2 45 5 73 7 27 2 49 5 49 8 0 3 12 5 26 5 14
-1 58 5 97 12 40 7 86 16 102 19 140 24 484 125 655 193 107 43 265 115 268
123 2 4 10 8 18 8 17 0 56 21 66 35 4 6 8 6 8 1 0 -5 6 -4 13 2 6 5 32 21 57
34 77 42 113 63 124 70 6 5 65 43 132 87 313 204 635 494 845 761 24 30 48 60
54 66 5 6 33 42 60 81 28 38 59 74 70 80 35 17 152 82 205 113 28 16 55 30 60
30 4 0 10 3 12 8 2 4 26 19 53 33 28 14 88 47 134 72 46 26 87 47 92 47 5 0 9
4 9 9 0 5 8 11 18 15 9 3 25 10 35 16 38 23 53 30 67 37 8 4 31 16 50 28 19
12 62 37 95 55 77 42 112 71 40 34z"/>
<path d="M3144 4530 c-5 -4 -58 -33 -119 -64 -60 -30 -101 -54 -90 -53 11 2
30 9 43 16 13 7 31 14 40 16 18 4 73 28 110 49 34 19 45 33 34 39 -5 4 -13 2
-18 -3z"/>
<path d="M2817 4489 c-32 -10 -70 -20 -85 -23 -15 -2 -28 -5 -30 -5 -1 -1 2
-10 8 -20 11 -22 27 -22 63 2 15 9 28 17 31 17 2 0 24 11 47 25 51 29 45 30
-34 4z"/>
<path d="M2680 4389 c-19 -10 -40 -22 -46 -26 -12 -9 -21 -15 -129 -73 -44
-24 -97 -54 -117 -67 -21 -13 -38 -21 -38 -18 0 2 -21 -9 -47 -25 -26 -17 -52
-30 -59 -30 -7 0 -14 -4 -16 -8 -1 -5 -43 -30 -93 -57 -49 -26 -93 -52 -96
-57 -3 -6 -10 -10 -15 -10 -5 0 -61 -29 -124 -65 -63 -36 -140 -79 -170 -96
-30 -16 -62 -35 -70 -42 -8 -7 -28 -19 -45 -27 -16 -8 -48 -25 -70 -38 -22
-13 -65 -36 -95 -53 -30 -17 -67 -38 -82 -49 -14 -10 -29 -18 -32 -18 -4 0
-35 -17 -69 -37 -35 -21 -93 -54 -130 -73 -37 -19 -67 -38 -67 -42 0 -4 23 6
50 22 28 17 53 30 57 30 3 0 77 36 164 80 87 44 159 77 159 73 0 -5 4 -3 8 3
4 6 75 44 157 85 83 41 152 77 153 82 2 4 12 7 23 7 10 0 19 4 19 10 0 5 3 9
8 8 6 -2 183 85 355 175 37 20 67 32 67 29 0 -4 4 -2 8 3 4 6 66 39 137 75 72
36 133 69 136 73 3 5 8 8 10 7 4 -2 97 43 194 93 22 12 43 20 48 19 4 -1 7 3
7 8 0 6 6 10 14 10 8 0 17 3 19 8 3 4 -9 7 -26 6 -18 0 -52 6 -77 13 -25 7
-45 12 -45 12 0 -1 -16 -10 -35 -20z"/>
<path d="M626 3895 c-11 -8 -16 -15 -10 -15 5 0 18 7 28 15 11 8 16 15 10 15
-5 0 -18 -7 -28 -15z"/>
<path d="M512 3838 c-29 -17 -51 -32 -48 -35 2 -2 22 7 45 21 22 14 45 26 50
26 5 0 13 5 16 10 10 17 -7 11 -63 -22z"/>
<path d="M6154 3792 c-11 -10 -19 -24 -18 -32 3 -15 11 -59 19 -110 3 -14 7
-63 11 -110 4 -57 14 -103 30 -139 30 -67 30 -72 -3 -109 l-28 -31 -111 3
c-65 3 -120 9 -131 17 -42 25 -57 73 -57 180 0 63 5 104 12 111 20 20 13 27
-13 15 -13 -7 -30 -22 -36 -34 -7 -13 -16 -23 -21 -23 -5 0 -7 4 -3 9 3 5 1
12 -5 16 -5 3 -10 15 -10 25 0 11 -19 33 -45 52 -24 18 -47 41 -50 51 -4 9
-11 17 -16 17 -5 0 -9 7 -9 16 0 8 -4 12 -10 9 -5 -3 -10 -1 -10 6 0 7 -3 10
-6 6 -3 -3 -23 1 -44 8 -21 7 -41 11 -44 8 -3 -4 -6 -1 -6 4 0 15 -17 11 -70
-17 -25 -12 -47 -22 -49 -21 -2 2 -7 -1 -10 -6 -3 -5 -22 -17 -41 -27 -19 -9
-62 -32 -95 -50 -117 -64 -171 -93 -250 -136 -44 -24 -89 -49 -100 -55 -21
-13 -95 -54 -205 -113 -36 -19 -132 -73 -214 -119 -82 -45 -151 -83 -153 -83
-3 0 -17 -8 -31 -19 -15 -10 -67 -40 -117 -66 -49 -26 -98 -55 -107 -63 -10
-8 -18 -11 -18 -6 0 5 -4 5 -8 -1 -7 -10 -28 -23 -122 -73 -30 -16 -71 -39
-90 -50 -19 -12 -48 -28 -65 -37 -16 -8 -46 -24 -65 -36 -19 -11 -53 -31 -75
-42 -22 -12 -42 -24 -45 -27 -3 -3 -23 -14 -45 -25 -37 -18 -135 -73 -210
-118 -16 -10 -38 -21 -47 -24 -10 -3 -18 -10 -18 -15 0 -5 -4 -7 -9 -4 -5 3
-14 -1 -21 -9 -9 -10 -9 -15 -1 -15 6 0 11 5 11 10 0 6 3 9 8 8 4 -1 49 19 99
45 51 26 95 46 97 45 2 -2 12 4 22 12 11 9 44 27 74 40 30 14 58 29 61 33 3 5
9 8 13 8 3 -1 48 20 99 46 50 26 94 47 97 48 3 1 29 13 57 28 29 15 54 26 55
25 2 -1 22 11 45 25 24 15 49 27 58 27 8 0 15 5 15 10 0 6 9 10 19 10 11 0 21
3 23 8 5 12 408 211 408 202 0 -5 12 -15 28 -23 15 -8 68 -36 117 -63 72 -40
248 -122 390 -184 28 -12 119 -45 125 -45 3 0 19 -5 35 -12 36 -14 224 -74
245 -78 8 -2 44 -11 80 -20 36 -9 74 -18 85 -20 11 -1 27 -5 35 -8 15 -5 151
-29 182 -32 10 -1 20 -4 22 -6 4 -4 -184 -111 -386 -222 -38 -20 -80 -44 -93
-53 -14 -9 -25 -13 -25 -9 0 4 -14 -5 -31 -19 -17 -14 -35 -26 -40 -26 -5 0
-54 -27 -108 -59 -55 -33 -102 -57 -105 -53 -3 3 -6 0 -6 -6 0 -7 -6 -12 -14
-12 -8 0 -16 -3 -18 -7 -1 -5 -20 -17 -40 -27 -21 -11 -38 -23 -38 -29 0 -6 5
-5 13 1 6 6 154 82 328 170 174 88 325 165 335 170 11 6 46 24 79 40 173 85
401 205 407 215 4 7 8 9 8 4 0 -4 57 23 128 59 187 98 172 87 137 94 -16 3
-33 2 -36 -3 -4 -5 -23 -9 -44 -10 -31 -1 -43 5 -66 32 -35 42 -43 85 -26 142
7 24 15 71 16 105 3 70 3 73 20 134 25 88 34 200 21 272 -4 21 -4 40 0 43 10
6 2 76 -10 90 -6 7 -8 14 -6 16 3 2 -4 29 -14 59 -17 51 -21 55 -52 57 -20 2
-41 -4 -54 -15z"/>
<path d="M397 3778 c-21 -11 -36 -23 -33 -25 4 -4 36 11 75 35 2 1 2 4 0 6 -2
2 -21 -5 -42 -16z"/>
<path d="M283 3717 c-24 -12 -43 -25 -43 -29 0 -5 19 2 43 14 54 29 51 27 46
32 -2 2 -23 -6 -46 -17z"/>
<path d="M145 3644 c-33 -18 -57 -34 -53 -34 15 0 118 53 118 61 0 5 -1 8 -2
8 -2 -1 -30 -16 -63 -35z"/>
<path d="M938 3410 c-60 -32 -108 -56 -108 -54 0 2 -11 -3 -25 -12 -14 -9 -25
-20 -25 -25 0 -5 9 -1 20 9 12 9 24 17 28 17 17 2 242 125 227 124 -5 0 -58
-26 -117 -59z"/>
<path d="M730 3299 c-19 -12 -37 -21 -40 -21 -3 0 -18 -8 -35 -18 -16 -11 -26
-20 -22 -20 5 0 23 10 40 22 18 13 33 22 35 20 3 -4 62 28 62 33 0 8 -2 7 -40
-16z"/>
<path d="M3695 3230 c-3 -6 1 -7 9 -4 18 7 21 14 7 14 -6 0 -13 -4 -16 -10z"/>
<path d="M3520 3140 c-8 -5 -10 -10 -5 -10 6 0 17 5 25 10 8 5 11 10 5 10 -5
0 -17 -5 -25 -10z"/>
<path d="M3430 3089 c0 -5 5 -7 10 -4 6 3 10 8 10 11 0 2 -4 4 -10 4 -5 0 -10
-5 -10 -11z"/>
<path d="M3230 2489 c0 -5 5 -7 10 -4 6 3 10 8 10 11 0 2 -4 4 -10 4 -5 0 -10
-5 -10 -11z"/>
<path d="M3189 2469 l-24 -20 28 17 c15 9 27 18 27 20 0 8 -8 4 -31 -17z"/>
<path d="M3140 2445 c-7 -9 -8 -15 -2 -15 5 0 12 7 16 15 3 8 4 15 2 15 -2 0
-9 -7 -16 -15z"/>
<path d="M3062 2404 c-23 -14 -42 -27 -42 -30 0 -3 57 24 89 44 2 1 2 4 0 7
-3 2 -24 -7 -47 -21z"/>
<path d="M2968 2356 c-21 -12 -38 -24 -38 -28 0 -4 17 2 38 14 45 26 46 27 41
31 -2 2 -21 -6 -41 -17z"/>
<path d="M2900 2320 c-13 -8 -12 -10 3 -10 9 0 17 5 17 10 0 12 -1 12 -20 0z"/>
<path d="M4940 2110 c-9 -6 -10 -10 -3 -10 6 0 15 5 18 10 8 12 4 12 -15 0z"/>
<path d="M5066 1855 c-11 -8 -15 -15 -9 -15 6 0 16 7 23 15 16 19 11 19 -14 0z"/>
<path d="M4986 1815 c-11 -8 -15 -15 -9 -15 6 0 16 7 23 15 16 19 11 19 -14 0z"/>
<path d="M4926 1785 c-11 -8 -15 -15 -9 -15 6 0 16 7 23 15 16 19 11 19 -14 0z"/>
</g>
</svg>
